<?xml version="1.0" standalone="no"?>
<!DOCTYPE svg PUBLIC "-//W3C//DTD SVG 20010904//EN"
 "http://www.w3.org/TR/2001/REC-SVG-20010904/DTD/svg10.dtd">
<svg version="1.0" xmlns="http://www.w3.org/2000/svg"
 width="96.000000pt" height="96.000000pt" viewBox="0 0 96.000000 96.000000"
 preserveAspectRatio="xMidYMid meet">
<metadata>
Created by potrace 1.14, written by Peter Selinger 2001-2017
</metadata>
<g transform="translate(0.000000,96.000000) scale(0.100000,-0.100000)"
fill="#000000" stroke="none">
<path d="M330 810 l0 -60 30 0 30 0 0 60 0 60 -30 0 -30 0 0 -60z"/>
<path d="M450 795 c0 -43 1 -45 30 -45 29 0 30 2 30 45 0 43 -1 45 -30 45 -29
0 -30 -2 -30 -45z"/>
<path d="M155 646 c3 -40 7 -82 9 -92 2 -11 7 -59 11 -109 4 -49 8 -92 10 -95
2 -3 6 -43 10 -90 9 -103 25 -147 60 -160 34 -13 326 -13 360 0 32 12 51 55
58 135 4 33 6 61 7 63 0 1 23 2 51 2 43 0 55 5 80 29 27 27 29 35 29 106 0 71
-2 79 -29 106 -22 21 -39 29 -66 29 l-36 0 7 75 7 75 -287 0 -288 0 7 -74z
m499 -1 c-1 -5 -5 -41 -8 -80 -7 -76 -14 -143 -20 -190 -3 -16 -8 -66 -11
-110 -11 -122 0 -115 -180 -115 -152 0 -166 3 -171 35 -1 6 -4 42 -8 80 -9 90
-16 152 -21 190 -2 17 -7 66 -11 110 -3 44 -8 83 -11 88 -2 4 96 6 219 5 141
-2 222 -7 222 -13z m120 -151 c9 -23 7 -107 -3 -122 -5 -8 -23 -12 -47 -10
l-39 3 8 73 9 72 33 0 c21 0 35 -6 39 -16z"/>
</g>
</svg>
